<svg width="59" height="81" viewBox="0 0 59 81" fill="none" xmlns="http://www.w3.org/2000/svg">
<path d="M13.6677 3.29182H44.5674H44.6907C45.1343 3.29182 45.4939 2.92819 45.4939 2.4796V1.36483C45.4939 0.916243 45.1343 0.552612 44.6907 0.552612H44.5674H13.6677H13.5444C13.1008 0.552612 12.7412 0.916243 12.7412 1.36483V2.4796C12.7412 2.92819 13.1008 3.29182 13.5444 3.29182H13.6677Z" fill="white"/>
<path d="M9.46984 5.72164V76.6274H0.803162C0.359575 76.6274 0 76.9912 0 77.4397V79.6314C0 80.0799 0.359575 80.4436 0.803162 80.4436H57.63C58.0734 80.4436 58.4331 80.0799 58.4331 79.6314V77.4397C58.4331 76.9912 58.0734 76.6274 57.63 76.6274H48.8829V5.72164C48.8829 5.27305 48.5233 4.90942 48.0797 4.90942H10.273C9.82941 4.90942 9.46984 5.27305 9.46984 5.72164ZM41.2178 8.08959C41.2178 7.641 41.5774 7.27737 42.021 7.27737H45.5187C45.9623 7.27737 46.3219 7.641 46.3219 8.08959V11.6267C46.3219 12.0753 45.9623 12.4389 45.5187 12.4389H42.021C41.5774 12.4389 41.2178 12.0753 41.2178 11.6267V8.08959ZM41.2178 15.1868C41.2178 14.7382 41.5774 14.3745 42.021 14.3745H45.5187C45.9623 14.3745 46.3219 14.7382 46.3219 15.1868V18.7239C46.3219 19.1724 45.9623 19.5361 45.5187 19.5361H42.021C41.5774 19.5361 41.2178 19.1724 41.2178 18.7239V15.1868ZM41.2178 22.2839C41.2178 21.8354 41.5774 21.4716 42.021 21.4716H45.5187C45.9623 21.4716 46.3219 21.8354 46.3219 22.2839V25.821C46.3219 26.2696 45.9623 26.6332 45.5187 26.6332H42.021C41.5774 26.6332 41.2178 26.2696 41.2178 25.821V22.2839ZM41.2178 29.381C41.2178 28.9324 41.5774 28.5688 42.021 28.5688H45.5187C45.9623 28.5688 46.3219 28.9324 46.3219 29.381V32.9181C46.3219 33.3666 45.9623 33.7303 45.5187 33.7303H42.021C41.5774 33.7303 41.2178 33.3666 41.2178 32.9181V29.381ZM41.2178 36.478C41.2178 36.0295 41.5774 35.6658 42.021 35.6658H45.5187C45.9623 35.6658 46.3219 36.0295 46.3219 36.478V40.0153C46.3219 40.4638 45.9623 40.8275 45.5187 40.8275H42.021C41.5774 40.8275 41.2178 40.4638 41.2178 40.0153V36.478ZM41.2178 43.5753C41.2178 43.1267 41.5774 42.7631 42.021 42.7631H45.5187C45.9623 42.7631 46.3219 43.1267 46.3219 43.5753V47.1124C46.3219 47.5609 45.9623 47.9247 45.5187 47.9247H42.021C41.5774 47.9247 41.2178 47.5609 41.2178 47.1124V43.5753ZM41.2178 50.6725C41.2178 50.2239 41.5774 49.8603 42.021 49.8603H45.5187C45.9623 49.8603 46.3219 50.2239 46.3219 50.6725V54.2096C46.3219 54.6581 45.9623 55.0218 45.5187 55.0218H42.021C41.5774 55.0218 41.2178 54.6581 41.2178 54.2096V50.6725ZM41.2178 57.7696C41.2178 57.3211 41.5774 56.9574 42.021 56.9574H45.5187C45.9623 56.9574 46.3219 57.3211 46.3219 57.7696V61.3067C46.3219 61.7552 45.9623 62.1189 45.5187 62.1189H42.021C41.5774 62.1189 41.2178 61.7552 41.2178 61.3067V57.7696ZM41.2178 64.8667C41.2178 64.4182 41.5774 64.0545 42.021 64.0545H45.5187C45.9623 64.0545 46.3219 64.4182 46.3219 64.8667V68.4039C46.3219 68.8525 45.9623 69.2161 45.5187 69.2161H42.021C41.5774 69.2161 41.2178 68.8525 41.2178 68.4039V64.8667ZM41.2178 71.9639C41.2178 71.5154 41.5774 71.1517 42.021 71.1517H45.5187C45.9623 71.1517 46.3219 71.5154 46.3219 71.9639V75.5011C46.3219 75.9496 45.9623 76.3133 45.5187 76.3133H42.021C41.5774 76.3133 41.2178 75.9496 41.2178 75.5011V71.9639ZM33.9212 8.08959C33.9212 7.641 34.2808 7.27737 34.7244 7.27737H38.2221C38.6656 7.27737 39.0252 7.641 39.0252 8.08959V11.6267C39.0252 12.0753 38.6656 12.4389 38.2221 12.4389H34.7244C34.2808 12.4389 33.9212 12.0753 33.9212 11.6267V8.08959ZM33.9212 15.1868C33.9212 14.7382 34.2808 14.3745 34.7244 14.3745H38.2221C38.6656 14.3745 39.0252 14.7382 39.0252 15.1868V18.7239C39.0252 19.1724 38.6656 19.5361 38.2221 19.5361H34.7244C34.2808 19.5361 33.9212 19.1724 33.9212 18.7239V15.1868ZM33.9212 22.2839C33.9212 21.8354 34.2808 21.4716 34.7244 21.4716H38.2221C38.6656 21.4716 39.0252 21.8354 39.0252 22.2839V25.821C39.0252 26.2696 38.6656 26.6332 38.2221 26.6332H34.7244C34.2808 26.6332 33.9212 26.2696 33.9212 25.821V22.2839ZM33.9212 29.381C33.9212 28.9324 34.2808 28.5688 34.7244 28.5688H38.2221C38.6656 28.5688 39.0252 28.9324 39.0252 29.381V32.9181C39.0252 33.3666 38.6656 33.7303 38.2221 33.7303H34.7244C34.2808 33.7303 33.9212 33.3666 33.9212 32.9181V29.381ZM33.9212 36.478C33.9212 36.0295 34.2808 35.6658 34.7244 35.6658H38.2221C38.6656 35.6658 39.0252 36.0295 39.0252 36.478V40.0153C39.0252 40.4638 38.6656 40.8275 38.2221 40.8275H34.7244C34.2808 40.8275 33.9212 40.4638 33.9212 40.0153V36.478ZM33.9212 43.5753C33.9212 43.1267 34.2808 42.7631 34.7244 42.7631H38.2221C38.6656 42.7631 39.0252 43.1267 39.0252 43.5753V47.1124C39.0252 47.5609 38.6656 47.9247 38.2221 47.9247H34.7244C34.2808 47.9247 33.9212 47.5609 33.9212 47.1124V43.5753ZM33.9212 50.6725C33.9212 50.2239 34.2808 49.8603 34.7244 49.8603H38.2221C38.6656 49.8603 39.0252 50.2239 39.0252 50.6725V54.2096C39.0252 54.6581 38.6656 55.0218 38.2221 55.0218H34.7244C34.2808 55.0218 33.9212 54.6581 33.9212 54.2096V50.6725ZM33.9212 57.7696C33.9212 57.3211 34.2808 56.9574 34.7244 56.9574H38.2221C38.6656 56.9574 39.0252 57.3211 39.0252 57.7696V61.3067C39.0252 61.7552 38.6656 62.1189 38.2221 62.1189H34.7244C34.2808 62.1189 33.9212 61.7552 33.9212 61.3067V57.7696ZM33.9212 64.8667C33.9212 64.4182 34.2808 64.0545 34.7244 64.0545H38.2221C38.6656 64.0545 39.0252 64.4182 39.0252 64.8667V68.4039C39.0252 68.8525 38.6656 69.2161 38.2221 69.2161H34.7244C34.2808 69.2161 33.9212 68.8525 33.9212 68.4039V64.8667ZM26.6244 8.08959C26.6244 7.641 26.9841 7.27737 27.4276 7.27737H30.9253C31.3688 7.27737 31.7285 7.641 31.7285 8.08959V11.6267C31.7285 12.0753 31.3688 12.4389 30.9253 12.4389H27.4276C26.9841 12.4389 26.6244 12.0753 26.6244 11.6267V8.08959ZM26.6244 15.1868C26.6244 14.7382 26.9841 14.3745 27.4276 14.3745H30.9253C31.3688 14.3745 31.7285 14.7382 31.7285 15.1868V18.7239C31.7285 19.1724 31.3688 19.5361 30.9253 19.5361H27.4276C26.9841 19.5361 26.6244 19.1724 26.6244 18.7239V15.1868ZM26.6244 22.2839C26.6244 21.8354 26.9841 21.4716 27.4276 21.4716H30.9253C31.3688 21.4716 31.7285 21.8354 31.7285 22.2839V25.821C31.7285 26.2696 31.3688 26.6332 30.9253 26.6332H27.4276C26.9841 26.6332 26.6244 26.2696 26.6244 25.821V22.2839ZM26.6244 29.381C26.6244 28.9324 26.9841 28.5688 27.4276 28.5688H30.9253C31.3688 28.5688 31.7285 28.9324 31.7285 29.381V32.9181C31.7285 33.3666 31.3688 33.7303 30.9253 33.7303H27.4276C26.9841 33.7303 26.6244 33.3666 26.6244 32.9181V29.381ZM26.6244 36.478C26.6244 36.0295 26.9841 35.6658 27.4276 35.6658H30.9253C31.3688 35.6658 31.7285 36.0295 31.7285 36.478V40.0153C31.7285 40.4638 31.3688 40.8275 30.9253 40.8275H27.4276C26.9841 40.8275 26.6244 40.4638 26.6244 40.0153V36.478ZM26.6244 43.5753C26.6244 43.1267 26.9841 42.7631 27.4276 42.7631H30.9253C31.3688 42.7631 31.7285 43.1267 31.7285 43.5753V47.1124C31.7285 47.5609 31.3688 47.9247 30.9253 47.9247H27.4276C26.9841 47.9247 26.6244 47.5609 26.6244 47.1124V43.5753ZM26.6244 50.6725C26.6244 50.2239 26.9841 49.8603 27.4276 49.8603H30.9253C31.3688 49.8603 31.7285 50.2239 31.7285 50.6725V54.2096C31.7285 54.6581 31.3688 55.0218 30.9253 55.0218H27.4276C26.9841 55.0218 26.6244 54.6581 26.6244 54.2096V50.6725ZM26.6244 57.7696C26.6244 57.3211 26.9841 56.9574 27.4276 56.9574H30.9253C31.3688 56.9574 31.7285 57.3211 31.7285 57.7696V61.3067C31.7285 61.7552 31.3688 62.1189 30.9253 62.1189H27.4276C26.9841 62.1189 26.6244 61.7552 26.6244 61.3067V57.7696ZM26.6244 64.8667C26.6244 64.4182 26.9841 64.0545 27.4276 64.0545H30.9253C31.3688 64.0545 31.7285 64.4182 31.7285 64.8667V68.4039C31.7285 68.8525 31.3688 69.2161 30.9253 69.2161H27.4276C26.9841 69.2161 26.6244 68.8525 26.6244 68.4039V64.8667ZM19.3276 8.08959C19.3276 7.641 19.6872 7.27737 20.1308 7.27737H23.6284C24.072 7.27737 24.4316 7.641 24.4316 8.08959V11.6267C24.4316 12.0753 24.072 12.4389 23.6284 12.4389H20.1308C19.6872 12.4389 19.3276 12.0753 19.3276 11.6267V8.08959ZM19.3276 15.1868C19.3276 14.7382 19.6872 14.3745 20.1308 14.3745H23.6284C24.072 14.3745 24.4316 14.7382 24.4316 15.1868V18.7239C24.4316 19.1724 24.072 19.5361 23.6284 19.5361H20.1308C19.6872 19.5361 19.3276 19.1724 19.3276 18.7239V15.1868ZM19.3276 22.2839C19.3276 21.8354 19.6872 21.4716 20.1308 21.4716H23.6284C24.072 21.4716 24.4316 21.8354 24.4316 22.2839V25.821C24.4316 26.2696 24.072 26.6332 23.6284 26.6332H20.1308C19.6872 26.6332 19.3276 26.2696 19.3276 25.821V22.2839ZM19.3276 29.381C19.3276 28.9324 19.6872 28.5688 20.1308 28.5688H23.6284C24.072 28.5688 24.4316 28.9324 24.4316 29.381V32.9181C24.4316 33.3666 24.072 33.7303 23.6284 33.7303H20.1308C19.6872 33.7303 19.3276 33.3666 19.3276 32.9181V29.381ZM19.3276 36.478C19.3276 36.0295 19.6872 35.6658 20.1308 35.6658H23.6284C24.072 35.6658 24.4316 36.0295 24.4316 36.478V40.0153C24.4316 40.4638 24.072 40.8275 23.6284 40.8275H20.1308C19.6872 40.8275 19.3276 40.4638 19.3276 40.0153V36.478ZM19.3276 43.5753C19.3276 43.1267 19.6872 42.7631 20.1308 42.7631H23.6284C24.072 42.7631 24.4316 43.1267 24.4316 43.5753V47.1124C24.4316 47.5609 24.072 47.9247 23.6284 47.9247H20.1308C19.6872 47.9247 19.3276 47.5609 19.3276 47.1124V43.5753ZM19.3276 50.6725C19.3276 50.2239 19.6872 49.8603 20.1308 49.8603H23.6284C24.072 49.8603 24.4316 50.2239 24.4316 50.6725V54.2096C24.4316 54.6581 24.072 55.0218 23.6284 55.0218H20.1308C19.6872 55.0218 19.3276 54.6581 19.3276 54.2096V50.6725ZM19.3276 57.7696C19.3276 57.3211 19.6872 56.9574 20.1308 56.9574H23.6284C24.072 56.9574 24.4316 57.3211 24.4316 57.7696V61.3067C24.4316 61.7552 24.072 62.1189 23.6284 62.1189H20.1308C19.6872 62.1189 19.3276 61.7552 19.3276 61.3067V57.7696ZM19.3276 64.8667C19.3276 64.4182 19.6872 64.0545 20.1308 64.0545H23.6284C24.072 64.0545 24.4316 64.4182 24.4316 64.8667V68.4039C24.4316 68.8525 24.072 69.2161 23.6284 69.2161H20.1308C19.6872 69.2161 19.3276 68.8525 19.3276 68.4039V64.8667ZM19.3276 71.9639C19.3276 71.5154 19.6872 71.1517 20.1308 71.1517H23.6736H24.4316H33.9212H34.6792H38.2221C38.6656 71.1517 39.0252 71.5154 39.0252 71.9639V75.5011C39.0252 75.9496 38.6656 76.3133 38.2221 76.3133H34.6791H33.9211H24.4316H23.6736H20.1308C19.6872 76.3133 19.3276 75.9496 19.3276 75.5011V71.9639ZM12.0309 8.08959C12.0309 7.641 12.3905 7.27737 12.834 7.27737H16.3317C16.7752 7.27737 17.1349 7.641 17.1349 8.08959V11.6267C17.1349 12.0753 16.7752 12.4389 16.3317 12.4389H12.834C12.3905 12.4389 12.0309 12.0753 12.0309 11.6267V8.08959ZM12.0309 15.1868C12.0309 14.7382 12.3905 14.3745 12.834 14.3745H16.3317C16.7752 14.3745 17.1349 14.7382 17.1349 15.1868V18.7239C17.1349 19.1724 16.7752 19.5361 16.3317 19.5361H12.834C12.3905 19.5361 12.0309 19.1724 12.0309 18.7239V15.1868ZM12.0309 22.2839C12.0309 21.8354 12.3905 21.4716 12.834 21.4716H16.3317C16.7752 21.4716 17.1349 21.8354 17.1349 22.2839V25.821C17.1349 26.2696 16.7752 26.6332 16.3317 26.6332H12.834C12.3905 26.6332 12.0309 26.2696 12.0309 25.821V22.2839ZM12.0309 29.381C12.0309 28.9324 12.3905 28.5688 12.834 28.5688H16.3317C16.7752 28.5688 17.1349 28.9324 17.1349 29.381V32.9181C17.1349 33.3666 16.7752 33.7303 16.3317 33.7303H12.834C12.3905 33.7303 12.0309 33.3666 12.0309 32.9181V29.381ZM12.0309 36.478C12.0309 36.0295 12.3905 35.6658 12.834 35.6658H16.3317C16.7752 35.6658 17.1349 36.0295 17.1349 36.478V40.0153C17.1349 40.4638 16.7752 40.8275 16.3317 40.8275H12.834C12.3905 40.8275 12.0309 40.4638 12.0309 40.0153V36.478ZM12.0309 43.5753C12.0309 43.1267 12.3905 42.7631 12.834 42.7631H16.3317C16.7752 42.7631 17.1349 43.1267 17.1349 43.5753V47.1124C17.1349 47.5609 16.7752 47.9247 16.3317 47.9247H12.834C12.3905 47.9247 12.0309 47.5609 12.0309 47.1124V43.5753ZM12.0309 50.6725C12.0309 50.2239 12.3905 49.8603 12.834 49.8603H16.3317C16.7752 49.8603 17.1349 50.2239 17.1349 50.6725V54.2096C17.1349 54.6581 16.7752 55.0218 16.3317 55.0218H12.834C12.3905 55.0218 12.0309 54.6581 12.0309 54.2096V50.6725ZM12.0309 57.7696C12.0309 57.3211 12.3905 56.9574 12.834 56.9574H16.3317C16.7752 56.9574 17.1349 57.3211 17.1349 57.7696V61.3067C17.1349 61.7552 16.7752 62.1189 16.3317 62.1189H12.834C12.3905 62.1189 12.0309 61.7552 12.0309 61.3067V57.7696ZM12.0309 64.8667C12.0309 64.4182 12.3905 64.0545 12.834 64.0545H16.3317C16.7752 64.0545 17.1349 64.4182 17.1349 64.8667V68.4039C17.1349 68.8525 16.7752 69.2161 16.3317 69.2161H12.834C12.3905 69.2161 12.0309 68.8525 12.0309 68.4039V64.8667ZM12.0309 71.9639C12.0309 71.5154 12.3905 71.1517 12.834 71.1517H16.3317C16.7752 71.1517 17.1349 71.5154 17.1349 71.9639V75.5011C17.1349 75.9496 16.7752 76.3133 16.3317 76.3133H12.834C12.3905 76.3133 12.0309 75.9496 12.0309 75.5011V71.9639Z" fill="white"/>
</svg>
