<svg width="68" height="70" viewBox="0 0 68 70" fill="none" xmlns="http://www.w3.org/2000/svg">
<path d="M65.1826 0.642883H2.79319C1.25295 0.642883 0 1.90997 0 3.46758V66.5851C0 68.1427 1.25295 69.4098 2.79319 69.4098H65.1826C66.7229 69.4098 67.9758 68.1427 67.9758 66.5851V3.46758C67.9758 1.90997 66.7229 0.642883 65.1826 0.642883V0.642883ZM65.9845 66.5851C65.9845 67.0322 65.6247 67.396 65.1826 67.396H2.79319C2.35111 67.396 1.99134 67.0322 1.99134 66.5851V3.46758C1.99134 3.02051 2.35111 2.65669 2.79319 2.65669H65.1826C65.6247 2.65669 65.9845 3.02051 65.9845 3.46758V66.5851Z" fill="white"/>
<path d="M62.4324 5.24335H5.54303C4.99302 5.24335 4.54736 5.69404 4.54736 6.25025V63.8024C4.54736 64.3587 4.99302 64.8093 5.54303 64.8093H62.4324C62.9824 64.8093 63.4281 64.3587 63.4281 63.8024V6.25025C63.4281 5.69404 62.9824 5.24335 62.4324 5.24335ZM19.5474 62.7955H6.5387V28.1725H19.5474V62.7955ZM61.4367 47.6262H56.3241C55.7741 47.6262 55.3285 48.0769 55.3285 48.6331C55.3285 49.1893 55.7741 49.64 56.3241 49.64H61.4367V62.7955H27.2V49.64H51.5972C52.1472 49.64 52.5929 49.1893 52.5929 48.6331C52.5929 48.0769 52.1472 47.6262 51.5972 47.6262H27.1129C26.0628 47.6262 25.2085 48.4903 25.2085 49.5522V62.7957H21.5386V28.0844C21.5386 27.0225 20.6841 26.1586 19.634 26.1586H6.5387V22.4263H15.3552C15.9052 22.4263 16.3508 21.9756 16.3508 21.4194C16.3508 20.8632 15.9052 20.4125 15.3552 20.4125H6.5387V7.25702H40.7756V20.4125H20.1154C19.5654 20.4125 19.1197 20.8632 19.1197 21.4194C19.1197 21.9756 19.5654 22.4263 20.1154 22.4263H40.8624C41.9125 22.4263 42.7668 21.5623 42.7668 20.5003V7.25715H46.4367V41.9683C46.4367 43.0302 47.2911 43.8941 48.3412 43.8941H61.4369V47.6262H61.4367ZM61.4367 41.8802H48.4281V7.25715H61.4367V41.8802Z" fill="white"/>
<path d="M40.8626 26.1587H27.1336C26.0835 26.1587 25.2292 27.0226 25.2292 28.0846V41.9682C25.2292 43.0302 26.0835 43.8941 27.1336 43.8941H40.8624C41.9125 43.8941 42.7668 43.0302 42.7668 41.9682V28.0844C42.7668 27.0225 41.9127 26.1587 40.8626 26.1587ZM40.7755 41.8802H27.2207V28.1725H40.7756V41.8802H40.7755Z" fill="white"/>
</svg>
