<svg width="77" height="79" viewBox="0 0 77 79" fill="none" xmlns="http://www.w3.org/2000/svg">
<g clip-path="url(#clip0)">
<path d="M75.7581 38.4368H39.7419V2.02487C39.7419 1.33147 39.1859 0.769287 38.5 0.769287C37.8141 0.769287 37.2581 1.33147 37.2581 2.02487V38.4368H1.24194C0.556077 38.4368 0 38.999 0 39.6924C0 40.3858 0.556077 40.9479 1.24194 40.9479H37.2581V77.3599C37.2581 78.0533 37.8141 78.6154 38.5 78.6154C39.1859 78.6154 39.7419 78.0533 39.7419 77.3599V40.9479H75.7581C76.4439 40.9479 77 40.3858 77 39.6924C77 38.999 76.4439 38.4368 75.7581 38.4368Z" fill="#F7AD8D"/>
</g>
<defs>
<clipPath id="clip0">
<rect width="77" height="77.8462" fill="white" transform="translate(0 0.769287)"/>
</clipPath>
</defs>
</svg>
